<svg width="20" height="20" viewBox="0 0 20 20" fill="none" xmlns="http://www.w3.org/2000/svg">
<path fill-rule="evenodd" clip-rule="evenodd" d="M7.29993 1.6C7.29993 1.26863 7.56856 1 7.89993 1H12.0999C12.4313 1 12.6999 1.26863 12.6999 1.6V3.79999C14.1333 3.79999 15.5667 3.79999 17 3.79999C17.3314 3.79999 17.6 4.06862 17.6 4.39999C17.6 4.73136 17.3314 4.99999 17 4.99999H16.1429L14.797 18.4597C14.7663 18.7664 14.5082 19 14.1999 19H5.79993C5.49168 19 5.23358 18.7664 5.2029 18.4597L3.85693 4.99999H3.00002C2.66865 4.99999 2.40002 4.73136 2.40002 4.39999C2.40002 4.06862 2.66865 3.79999 3.00002 3.79999C4.43334 3.79999 5.86661 3.79999 7.29993 3.79999V1.6ZM14.9369 4.99999L13.6569 17.8H6.34292L5.06292 4.99999C8.35427 4.99999 11.6456 4.99999 14.9369 4.99999ZM11.4999 3.79999H8.49993V2.2H11.4999V3.79999ZM7.47566 9.02426C7.24135 8.78995 7.24135 8.41005 7.47566 8.17574C7.70998 7.94142 8.08988 7.94142 8.32419 8.17574L9.99993 9.85147L11.6757 8.17574C11.91 7.94142 12.2899 7.94142 12.5242 8.17574C12.7585 8.41005 12.7585 8.78995 12.5242 9.02426L10.8485 10.7L12.5242 12.3757C12.7585 12.6101 12.7585 12.9899 12.5242 13.2243C12.2899 13.4586 11.91 13.4586 11.6757 13.2243L9.99993 11.5485L8.32419 13.2243C8.08988 13.4586 7.70998 13.4586 7.47566 13.2243C7.24135 12.9899 7.24135 12.6101 7.47566 12.3757L9.1514 10.7L7.47566 9.02426Z" fill="#D9D9D9"/>
</svg>
